<svg width="217.000000" height="22.000000" viewBox="0 0 217 22" fill="none" xmlns="http://www.w3.org/2000/svg" xmlns:xlink="http://www.w3.org/1999/xlink">
	<desc>
			Created with Pixso.
	</desc>
	<defs/>
	<path d="M13.93 9.63L13.93 14.21L20.26 14.21L20.26 16.73C19.88 16.84 19.5 16.95 19.14 17.06C18.78 17.16 18.39 17.24 17.99 17.31C17.58 17.39 17.12 17.44 16.63 17.48C16.13 17.52 15.55 17.54 14.87 17.54C13.55 17.54 12.41 17.44 11.44 17.23C10.48 17.02 9.65 16.74 8.97 16.4C8.28 16.06 7.73 15.66 7.3 15.21C6.88 14.76 6.55 14.3 6.31 13.81C6.07 13.33 5.91 12.84 5.82 12.35C5.73 11.86 5.69 11.41 5.69 11C5.69 10.52 5.74 10.03 5.84 9.52C5.94 9.02 6.12 8.52 6.39 8.03C6.66 7.55 7.01 7.09 7.47 6.66C7.93 6.22 8.51 5.85 9.22 5.52C9.93 5.2 10.78 4.94 11.77 4.75C12.77 4.55 13.93 4.46 15.27 4.46C16.35 4.46 17.37 4.53 18.34 4.67C19.32 4.81 20.23 5 21.08 5.23C21.93 5.47 22.72 5.74 23.44 6.04C24.17 6.35 24.82 6.66 25.4 6.98L25.4 1.87C23.93 1.32 22.31 0.87 20.56 0.52C18.8 0.17 16.89 0 14.85 0C13.52 0 12.23 0.09 10.98 0.27C9.73 0.45 8.55 0.73 7.46 1.11C6.36 1.49 5.34 1.98 4.43 2.57C3.51 3.15 2.73 3.85 2.07 4.67C1.42 5.48 0.91 6.41 0.54 7.46C0.18 8.52 0 9.7 0 11C0 12.3 0.17 13.48 0.52 14.53C0.87 15.58 1.36 16.51 1.99 17.32C2.63 18.14 3.39 18.83 4.29 19.43C5.19 20.01 6.18 20.5 7.27 20.88C8.35 21.26 9.53 21.54 10.79 21.72C12.04 21.9 13.35 21.99 14.72 21.99C15.61 21.99 16.55 21.95 17.54 21.87C18.53 21.79 19.52 21.68 20.51 21.53C21.5 21.38 22.46 21.2 23.38 21C24.31 20.79 25.15 20.56 25.9 20.31L25.9 9.63L13.93 9.63ZM46.79 13.24C47.41 13.02 48 12.75 48.56 12.43C49.11 12.1 49.6 11.71 50.02 11.23C50.44 10.76 50.77 10.2 51.03 9.53C51.27 8.88 51.4 8.11 51.4 7.22C51.4 6.22 51.25 5.31 50.95 4.49C50.65 3.67 50.17 2.98 49.5 2.4C48.84 1.82 47.98 1.37 46.92 1.06C45.86 0.74 44.57 0.59 43.05 0.59L28.91 0.59L28.91 21.49L34.55 21.49L34.55 13.79L40.71 13.79L47.03 21.5L53.64 21.5L46.79 13.24ZM45.53 8.23C45.43 8.51 45.24 8.74 44.98 8.92C44.72 9.1 44.36 9.23 43.92 9.31C43.48 9.39 42.93 9.43 42.27 9.43L34.55 9.43L34.55 4.96L42.27 4.96C42.93 4.96 43.48 5 43.92 5.08C44.36 5.16 44.72 5.29 44.98 5.47C45.24 5.64 45.43 5.87 45.53 6.16C45.64 6.44 45.69 6.79 45.69 7.19C45.69 7.6 45.64 7.94 45.53 8.23ZM62.45 17.03L62.45 12.96L77.01 12.96L77.01 8.5L62.45 8.5L62.45 8.49L56.65 8.49L56.65 21.5L78.01 21.5L78.01 17.03L62.45 17.03ZM62.45 5.05L77.8 5.05L77.8 0.59L56.65 0.59L56.65 5.05L62.45 5.05ZM86.81 17.03L86.81 12.96L101.38 12.96L101.38 8.5L86.81 8.5L86.81 8.49L81.02 8.49L81.02 21.5L102.38 21.5L102.38 17.03L86.81 17.03ZM86.81 5.05L102.17 5.05L102.17 0.59L81.02 0.59L81.02 5.05L86.81 5.05ZM125.63 0.59L125.63 15.02L111.52 0.59L105.39 0.59L105.39 21.5L111.03 21.5L111.03 7.13L125.12 21.5L131.23 21.5L131.23 0.59L125.63 0.59ZM139.88 16.91L139.88 0.59L134.25 0.59L134.25 21.5L155.14 21.5L155.14 16.91L139.88 16.91ZM163.78 21.5L163.78 0.59L158.13 0.59L158.13 21.5L163.78 21.5ZM187.01 0.59L187.01 15.02L172.91 0.59L166.78 0.59L166.78 21.5L172.41 21.5L172.41 7.13L186.51 21.5L192.62 21.5L192.62 0.59L187.01 0.59ZM201.43 17.03L201.43 12.96L215.99 12.96L215.99 8.5L201.43 8.5L201.43 8.49L195.63 8.49L195.63 21.5L217 21.5L217 17.03L201.43 17.03ZM201.43 5.05L216.78 5.05L216.78 0.59L195.63 0.59L195.63 5.05L201.43 5.05Z" fill="#FFFFFF" fill-opacity="1.000000" fill-rule="nonzero"/>
</svg>
