<svg width="17.000000" height="21.000000" viewBox="0 0 17 21" fill="none" xmlns="http://www.w3.org/2000/svg" xmlns:xlink="http://www.w3.org/1999/xlink">
	<desc>
			Created with Pixso.
	</desc>
	<defs/>
	<path id="Vector" d="M5.97 8.41L7.72 6.81C8.2 6.37 8.53 5.8 8.68 5.17C8.83 4.54 8.79 3.88 8.56 3.27L7.82 1.29C7.54 0.54 6.99 -0.06 6.28 -0.41C5.57 -0.76 4.75 -0.83 3.99 -0.6C1.21 0.25 -0.94 2.85 -0.28 5.92C0.16 7.95 0.99 10.49 2.56 13.19C4.14 15.91 5.94 17.91 7.48 19.31C9.81 21.44 13.14 20.91 15.29 18.91C15.86 18.37 16.21 17.64 16.26 16.85C16.31 16.07 16.06 15.29 15.56 14.69L14.2 13.03C13.79 12.53 13.23 12.16 12.61 11.98C11.99 11.79 11.33 11.8 10.71 11.99L8.45 12.7C7.87 12.1 7.36 11.44 6.93 10.72C6.52 9.99 6.2 9.21 5.97 8.41L5.97 8.41Z" fill="#000000" fill-opacity="1.000000" fill-rule="nonzero"/>
</svg>
