<svg width="37.000000" height="21.000000" viewBox="0 0 37 21" fill="none" xmlns="http://www.w3.org/2000/svg" xmlns:xlink="http://www.w3.org/1999/xlink">
	<desc>
			Created with Pixso.
	</desc>
	<defs/>
	<path id="Vector" d="M35.5 0.55C34.98 0.04 34.28 -0.25 33.55 -0.25C32.82 -0.25 32.12 0.04 31.61 0.55L18 14.16L4.38 0.55C3.86 0.05 3.17 -0.23 2.45 -0.22C1.73 -0.21 1.04 0.07 0.53 0.58C0.02 1.09 -0.27 1.78 -0.28 2.5C-0.28 3.23 -0.01 3.92 0.49 4.44L16.05 20C16.57 20.51 17.27 20.8 18 20.8C18.72 20.8 19.42 20.51 19.94 20L35.5 4.44C36.01 3.92 36.3 3.22 36.3 2.5C36.3 1.77 36.01 1.07 35.5 0.55Z" fill="#FFFFFF" fill-opacity="1.000000" fill-rule="nonzero"/>
</svg>
