<svg width="20.000000" height="16.000000" viewBox="0 0 20 16" fill="none" xmlns="http://www.w3.org/2000/svg" xmlns:xlink="http://www.w3.org/1999/xlink">
	<desc>
			Created with Pixso.
	</desc>
	<defs/>
	<path id="Vector" d="M18 0L2 0C1.46 0 0.96 0.21 0.58 0.58C0.21 0.96 0 1.46 0 2L0 14C0 14.53 0.21 15.03 0.58 15.41C0.96 15.78 1.46 16 2 16L18 16C18.53 16 19.03 15.78 19.41 15.41C19.78 15.03 20 14.53 20 14L20 2C20 1.46 19.78 0.96 19.41 0.58C19.03 0.21 18.53 0 18 0ZM18 4.23L10 9.11L2 4.23L2 2L18 2L18 4.23Z" fill="#000000" fill-opacity="1.000000" fill-rule="nonzero"/>
</svg>
