<svg width="10.000000" height="12.000000" viewBox="0 0 10 12" fill="none" xmlns="http://www.w3.org/2000/svg" xmlns:xlink="http://www.w3.org/1999/xlink">
	<desc>
			Created with Pixso.
	</desc>
	<defs/>
	<path id="Vector" d="M3.5 5.03L4.46 4.15C4.72 3.91 4.91 3.59 4.99 3.24C5.07 2.9 5.05 2.53 4.93 2.2L4.52 1.11C4.36 0.7 4.06 0.36 3.67 0.17C3.28 -0.02 2.83 -0.06 2.41 0.07C0.88 0.54 -0.3 1.97 0.06 3.66C0.3 4.77 0.76 6.17 1.62 7.66C2.49 9.15 3.48 10.25 4.33 11.03C5.61 12.19 7.45 11.9 8.62 10.8C8.94 10.51 9.13 10.1 9.16 9.67C9.19 9.24 9.05 8.82 8.78 8.48L8.03 7.57C7.8 7.29 7.5 7.09 7.15 6.99C6.81 6.89 6.45 6.89 6.11 7L4.87 7.39C4.55 7.06 4.26 6.69 4.03 6.3C3.8 5.9 3.62 5.47 3.5 5.03L3.5 5.03Z" fill="#000000" fill-opacity="1.000000" fill-rule="nonzero"/>
</svg>
