<svg width="15.000000" height="15.000000" viewBox="0 0 15 15" fill="none" xmlns="http://www.w3.org/2000/svg" xmlns:xlink="http://www.w3.org/1999/xlink">
	<desc>
			Created with Pixso.
	</desc>
	<defs/>
	<path id="Vector" d="M0.91 0.59L2.14 -0.17C2.54 -0.42 3.03 -0.51 3.5 -0.43C3.97 -0.36 4.39 -0.11 4.7 0.26L6.19 2.09C6.45 2.41 6.6 2.8 6.63 3.21C6.66 3.62 6.55 4.03 6.33 4.38L5.26 6.09C5.12 6.32 5.46 6.99 6.48 8.01C7.5 9.04 8.17 9.37 8.4 9.23L10.12 8.16C10.46 7.94 10.87 7.84 11.28 7.86C11.69 7.89 12.08 8.04 12.4 8.3L14.22 9.79C14.59 10.09 14.84 10.51 14.92 10.98C15 11.45 14.9 11.93 14.66 12.34L13.89 13.59C13.64 13.99 13.29 14.32 12.87 14.55C12.45 14.77 11.98 14.88 11.51 14.86C9.18 14.78 6.65 13.36 3.92 10.63C1.19 7.89 -0.25 5.35 -0.35 2.99C-0.38 2.51 -0.27 2.04 -0.05 1.62C0.18 1.2 0.51 0.84 0.91 0.59Z" fill="#FFFFFF" fill-opacity="1.000000" fill-rule="nonzero"/>
</svg>
