<svg width="16.000000" height="21.000000" viewBox="0 0 16 21" fill="none" xmlns="http://www.w3.org/2000/svg" xmlns:xlink="http://www.w3.org/1999/xlink">
	<desc>
			Created with Pixso.
	</desc>
	<defs/>
	<path id="Vector" d="M8 19L8.7 19.7C8.61 19.79 8.5 19.87 8.38 19.92C8.26 19.97 8.13 20 7.99 20C7.86 20 7.73 19.97 7.61 19.92C7.49 19.87 7.38 19.79 7.29 19.7L7.28 19.69L7.26 19.68L7.2 19.61C6.85 19.25 6.5 18.88 6.16 18.51C5.31 17.57 4.49 16.6 3.7 15.6C2.81 14.45 1.9 13.15 1.21 11.87C0.53 10.61 0 9.24 0 8C0 3.46 3.59 0 8 0C12.4 0 16 3.46 16 8C16 9.24 15.46 10.61 14.78 11.87C14.09 13.15 13.18 14.45 12.29 15.6C11.19 17 10.03 18.34 8.79 19.61L8.73 19.68L8.71 19.69L8.7 19.7L8 19ZM8 11C8.79 11 9.55 10.68 10.12 10.12C10.68 9.55 11 8.79 11 8C11 7.2 10.68 6.44 10.12 5.87C9.55 5.31 8.79 5 8 5C7.2 5 6.44 5.31 5.87 5.87C5.31 6.44 5 7.2 5 8C5 8.79 5.31 9.55 5.87 10.12C6.44 10.68 7.2 11 8 11Z" fill="#000000" fill-opacity="1.000000" fill-rule="evenodd"/>
</svg>
