<svg width="8.000000" height="6.000000" viewBox="0 0 8 6" fill="none" xmlns="http://www.w3.org/2000/svg" xmlns:xlink="http://www.w3.org/1999/xlink">
	<desc>
			Created with Pixso.
	</desc>
	<defs/>
	<path id="Vector" d="M6.87 -0.13L0.12 -0.13C0.05 -0.13 -0.02 -0.11 -0.07 -0.08C-0.13 -0.04 -0.18 0.01 -0.21 0.07C-0.24 0.13 -0.26 0.2 -0.25 0.27C-0.25 0.34 -0.23 0.4 -0.19 0.46L3.19 5.33C3.33 5.54 3.66 5.54 3.8 5.33L7.18 0.46C7.22 0.4 7.24 0.34 7.24 0.27C7.25 0.2 7.23 0.13 7.2 0.07C7.17 0.01 7.12 -0.04 7.06 -0.08C7.01 -0.11 6.94 -0.13 6.87 -0.13Z" fill="#076145" fill-opacity="1.000000" fill-rule="nonzero"/>
</svg>
