<svg width="42.000000" height="42.000000" viewBox="0 0 42 42" fill="none" xmlns="http://www.w3.org/2000/svg" xmlns:xlink="http://www.w3.org/1999/xlink">
	<desc>
			Created with Pixso.
	</desc>
	<defs>
		<clipPath id="clip311_730">
			<rect id="logos:telegram" width="42.000000" height="42.000000" fill="white" fill-opacity="0"/>
		</clipPath>
		<linearGradient id="paint_linear_311_731_0" x1="2100.000000" y1="0.000000" x2="2100.000000" y2="4200.000000" gradientUnits="userSpaceOnUse">
			<stop stop-color="#2AABEE"/>
			<stop offset="1.000000" stop-color="#229ED9"/>
		</linearGradient>
	</defs>
	<rect id="logos:telegram" width="42.000000" height="42.000000" fill="#FFFFFF" fill-opacity="0"/>
	<g clip-path="url(#clip311_730)">
		<path id="Vector" d="M21 0C15.43 0 10.08 2.21 6.15 6.15C2.21 10.08 0 15.43 0 21C0 26.56 2.21 31.91 6.15 35.84C10.08 39.78 15.43 42 21 42C26.56 42 31.91 39.78 35.84 35.84C39.78 31.91 42 26.56 42 21C42 15.43 39.78 10.08 35.84 6.15C31.91 2.21 26.56 0 21 0Z" fill="url(#paint_linear_311_731_0)" fill-opacity="1.000000" fill-rule="nonzero"/>
		<path id="Vector" d="M9.5 20.77C15.62 18.11 19.71 16.35 21.75 15.5C27.58 13.07 28.79 12.65 29.58 12.64C29.76 12.63 30.14 12.68 30.4 12.88C30.61 13.05 30.66 13.29 30.69 13.45C30.72 13.61 30.76 13.99 30.73 14.28C30.41 17.6 29.04 25.66 28.35 29.37C28.06 30.95 27.48 31.48 26.91 31.53C25.69 31.64 24.77 30.72 23.59 29.95C21.74 28.74 20.7 27.98 18.9 26.8C16.83 25.43 18.17 24.68 19.35 23.45C19.66 23.13 25.04 18.25 25.14 17.8C25.15 17.75 25.17 17.54 25.04 17.43C24.92 17.32 24.74 17.36 24.61 17.39C24.42 17.43 21.47 19.38 15.75 23.24C14.91 23.82 14.15 24.1 13.47 24.09C12.72 24.07 11.28 23.66 10.21 23.31C8.89 22.89 7.85 22.66 7.94 21.93C7.99 21.56 8.51 21.17 9.5 20.77Z" fill="#FFFFFF" fill-opacity="1.000000" fill-rule="nonzero"/>
	</g>
</svg>
