<svg width="43.000000" height="44.000000" viewBox="0 0 43 44" fill="none" xmlns="http://www.w3.org/2000/svg" xmlns:xlink="http://www.w3.org/1999/xlink">
	<desc>
			Created with Pixso.
	</desc>
	<defs>
		<clipPath id="clip311_727">
			<rect id="logos:whatsapp-icon" width="43.000000" height="44.000000" fill="white" fill-opacity="0"/>
		</clipPath>
		<linearGradient id="paint_linear_311_728_0" x1="2076.275879" y1="4234.395020" x2="2076.275879" y2="0.759277" gradientUnits="userSpaceOnUse">
			<stop stop-color="#1FAF38"/>
			<stop offset="1.000000" stop-color="#60D669"/>
		</linearGradient>
	</defs>
	<rect id="logos:whatsapp-icon" width="43.000000" height="44.000000" fill="#FFFFFF" fill-opacity="0"/>
	<g clip-path="url(#clip311_727)">
		<path id="Vector" d="M0.91 21.73C0.91 25.43 1.86 29.04 3.67 32.22L0.74 43.09L11.7 40.17C14.73 41.85 18.12 42.73 21.57 42.73L21.58 42.73C32.97 42.73 42.25 33.32 42.25 21.75C42.25 16.14 40.1 10.87 36.2 6.91C32.3 2.94 27.11 0.76 21.58 0.75C10.19 0.75 0.92 10.16 0.91 21.73L0.91 21.73Z" fill="url(#paint_linear_311_728_0)" fill-opacity="1.000000" fill-rule="nonzero"/>
		<path id="Vector" d="M16.23 12.64C15.83 11.74 15.41 11.72 15.03 11.7C14.72 11.69 14.36 11.69 14 11.69C13.65 11.69 13.07 11.83 12.58 12.37C12.09 12.91 10.71 14.23 10.71 16.9C10.71 19.57 12.62 22.15 12.89 22.52C13.16 22.88 16.59 28.54 22.03 30.71C26.55 32.52 27.47 32.16 28.45 32.07C29.43 31.98 31.61 30.76 32.06 29.49C32.5 28.22 32.5 27.14 32.37 26.91C32.24 26.68 31.88 26.55 31.35 26.28C30.81 26 28.18 24.69 27.69 24.51C27.2 24.33 26.84 24.24 26.49 24.78C26.13 25.32 25.1 26.55 24.79 26.91C24.48 27.27 24.17 27.32 23.63 27.05C23.1 26.77 21.38 26.2 19.33 24.35C17.74 22.91 16.67 21.13 16.36 20.59C16.04 20.05 16.32 19.75 16.59 19.48C16.83 19.24 17.13 18.85 17.39 18.53C17.66 18.21 17.75 17.99 17.93 17.62C18.11 17.26 18.02 16.94 17.88 16.67C17.75 16.4 16.71 13.71 16.23 12.64Z" fill="#FFFFFF" fill-opacity="1.000000" fill-rule="nonzero"/>
	</g>
</svg>
